<?xml version="1.0" standalone="no"?>
<!DOCTYPE svg PUBLIC "-//W3C//DTD SVG 20010904//EN"
 "http://www.w3.org/TR/2001/REC-SVG-20010904/DTD/svg10.dtd">
<svg version="1.0" xmlns="http://www.w3.org/2000/svg"
 width="225.000000pt" height="225.000000pt" viewBox="0 0 225.000000 225.000000"
 preserveAspectRatio="xMidYMid meet">

<g transform="translate(0.000000,225.000000) scale(0.100000,-0.100000)"
fill="#000000" stroke="none">
<path d="M925 2096 c-52 -23 -92 -63 -123 -120 -14 -26 -18 -70 -22 -271 l-5
-240 -240 -5 c-224 -5 -243 -7 -282 -27 -91 -49 -133 -137 -133 -280 l0 -83
303 0 302 0 48 138 c109 311 127 346 163 311 12 -13 20 -65 35 -220 10 -112
19 -226 19 -254 1 -67 11 -47 50 100 34 129 42 145 71 145 23 0 32 -20 55
-118 9 -40 19 -71 22 -68 3 3 21 74 41 158 38 158 53 184 88 162 14 -9 23 -52
45 -205 15 -107 27 -201 28 -209 0 -8 8 1 18 20 l17 35 340 5 340 5 3 69 c6
140 -33 229 -125 283 l-48 28 -240 5 -240 5 -5 235 c-5 220 -6 238 -28 282
-26 53 -68 92 -127 119 -33 15 -66 19 -180 19 -126 0 -145 -3 -190 -24z"/>
<path d="M836 1162 c-27 -75 -55 -145 -64 -154 -14 -16 -43 -18 -329 -18
l-314 0 6 -22 c17 -56 64 -111 120 -141 37 -20 59 -22 280 -27 l240 -5 5 -240
c4 -201 8 -245 22 -271 31 -57 71 -97 123 -120 45 -21 64 -24 190 -24 114 0
147 4 180 19 59 27 101 66 127 119 22 44 23 62 28 282 l5 235 241 5 241 5 49
30 c50 32 98 91 109 138 l7 27 -313 -2 -313 -3 -31 -95 c-35 -111 -40 -120
-64 -120 -10 0 -23 6 -29 13 -5 6 -20 91 -32 187 -12 96 -26 181 -29 188 -4 7
-13 -16 -20 -50 -23 -115 -56 -221 -73 -231 -28 -18 -46 9 -69 109 -12 52 -24
93 -26 90 -3 -2 -20 -60 -38 -128 -46 -169 -57 -199 -77 -212 -38 -24 -46 6
-71 282 -14 145 -26 265 -29 267 -2 3 -26 -57 -52 -133z"/>
</g>
</svg>
